Coordinates
version=1
nRows=22
nColumns=24
inDegrees=yes

Units are S.I. units (second, meters, Newtons, ...)
Angles are in degrees.

endheader
time	pelvis_tilt	pelvis_list	pelvis_rotation	pelvis_tx	pelvis_ty	pelvis_tz	hip_flexion_r	hip_adduction_r	hip_rotation_r	knee_angle_r	ankle_angle_r	subtalar_angle_r	mtp_angle_r	hip_flexion_l	hip_adduction_l	hip_rotation_l	knee_angle_l	ankle_angle_l	subtalar_angle_l	mtp_angle_l	lumbar_extension	lumbar_bending	lumbar_rotation
      3.09500000	     -3.46380191	      4.00766394	    355.99397825	     -0.67199483	      1.36663344	     -0.95963206	     -2.03411955	     -1.11207683	      5.57574989	    -18.73994087	     14.22524474	     -0.78521394	      7.45365721	     22.55241816	      3.75490177	     -8.28473000	      1.63078925	     -6.84171917	      6.60357469	     30.28660894	    -12.24877875	      4.20169725	     -4.95670147
      3.10000000	     -3.50588882	      4.08389559	    356.05221526	     -0.66668230	      1.36601492	     -0.96023871	     -2.30802546	     -1.23882480	      5.54062050	    -18.78742757	     14.34480300	     -0.76043614	      7.19536583	     22.65752712	      3.90989439	     -7.85387962	      1.02035291	     -7.12743340	      5.54537115	     30.17552090	    -12.18369717	      4.08817320	     -5.05002409
      3.10500000	     -3.50380142	      4.17039327	    356.08680350	     -0.66133563	      1.36548347	     -0.96080837	     -2.62793037	     -1.38268367	      5.50984311	    -18.82730522	     14.40286634	     -0.72575688	      7.19482570	     22.69255449	      4.07539080	     -7.53746048	      0.44792855	     -7.40085572	      4.74417417	     30.20593851	    -12.18102869	      3.94614978	     -5.01830869
      3.11000000	     -3.51921308	      4.25165279	    356.13495575	     -0.65595258	      1.36497865	     -0.96139982	     -2.92995966	     -1.51615023	      5.48816154	    -18.86805670	     14.39238241	     -0.76162076	      7.28020590	     22.72889017	      4.24644014	     -7.21339766	     -0.08375098	     -7.75193905	      3.94399847	     30.28374290	    -12.15036572	      3.81367888	     -5.03076073
      3.11500000	     -3.51002817	      4.34767191	    356.18299654	     -0.65054443	      1.36453649	     -0.96199322	     -3.25084823	     -1.66839894	      5.45461276	    -18.92383970	     14.35617668	     -0.78282616	      7.41774424	     22.71379651	      4.44031943	     -6.90868800	     -0.55786447	     -8.16134656	      3.19559834	     30.40072351	    -12.14507997	      3.66143483	     -5.02674952
      3.12000000	     -3.56037492	      4.44389922	    356.23750319	     -0.64513572	      1.36409364	     -0.96259196	     -3.48361180	     -1.81307488	      5.42797338	    -19.02238329	     14.27458338	     -0.82802634	      7.59562214	     22.75710404	      4.63275441	     -6.60648512	     -1.00659827	     -8.62627937	      2.47549119	     30.57025539	    -12.08362030	      3.50787007	     -5.02221832
      3.12500000	     -3.58146654	      4.56183597	    356.28417855	     -0.63973257	      1.36373059	     -0.96316627	     -3.72094040	     -1.98253129	      5.39841384	    -19.17012545	     14.16105284	     -0.85518751	      7.78135979	     22.74533092	      4.84754021	     -6.33757626	     -1.39850599	     -9.12401749	      1.85538787	     30.74619053	    -12.05583284	      3.31927240	     -5.03066192
      3.13000000	     -3.62421104	      4.66152645	    356.36310690	     -0.63429201	      1.36340918	     -0.96380178	     -3.93435703	     -2.13210273	      5.32671413	    -19.32120057	     13.98991309	     -0.88358806	      8.05673197	     22.75343487	      5.05674345	     -6.04393653	     -1.77972786	     -9.64871961	      1.20556140	     31.05092422	    -12.00737269	      3.16348072	     -5.01435360
      3.13500000	     -3.67102434	      4.78964607	    356.40344172	     -0.62885268	      1.36315853	     -0.96437218	     -4.10016574	     -2.30995552	      5.30569949	    -19.54601224	     13.81364763	     -0.90276580	      8.30597306	     22.75365752	      5.27731992	     -5.85505884	     -2.13775673	    -10.17809636	      0.65682752	     31.24837878	    -11.94690376	      2.96827299	     -5.01222426
      3.14000000	     -3.71990701	      4.91567432	    356.46706180	     -0.62341465	      1.36297481	     -0.96497718	     -4.23646021	     -2.48680764	      5.24040732	    -19.81951261	     13.56972255	     -0.90730917	      8.63341553	     22.75125817	      5.50236429	     -5.62769995	     -2.48897572	    -10.70193897	      0.13116507	     31.47977765	    -11.89450910	      2.77689230	     -5.02429427
      3.14500000	     -3.78006077	      5.03655610	    356.54273731	     -0.61797218	      1.36285187	     -0.96559376	     -4.32817181	     -2.65672011	      5.15823028	    -20.15094913	     13.25673412	     -0.92998208	      9.06348746	     22.76292649	      5.72090151	     -5.39350284	     -2.85286647	    -11.19650283	     -0.34628409	     31.75757795	    -11.83048127	      2.59029330	     -5.01701169
      3.15000000	     -3.84184026	      5.16777365	    356.59666014	     -0.61252679	      1.36280979	     -0.96619667	     -4.37406936	     -2.84187448	      5.08920000	    -20.55501360	     12.90355326	     -0.88930232	      9.48226731	     22.77609022	      5.93933566	     -5.20217341	     -3.23142719	    -11.64593706	     -0.80958754	     31.89652144	    -11.76816469	      2.39475829	     -5.00063228
      3.15500000	     -3.90461602	      5.30134987	    356.65005355	     -0.60708763	      1.36284291	     -0.96680000	     -4.37676460	     -3.03129803	      5.01451652	    -21.02915986	     12.51206233	     -0.82531904	      9.97304592	     22.80591576	      6.15530006	     -5.03539090	     -3.65606526	    -12.04078405	     -1.25859778	     31.97441607	    -11.70331924	      2.19640056	     -4.98897807
      3.16000000	     -3.96047332	      5.43298215	    356.72286932	     -0.60162329	      1.36294947	     -0.96743404	     -4.35114522	     -3.22168744	      4.91144927	    -21.56686488	     12.03381224	     -0.77069763	     10.59088989	     22.82968531	      6.37415073	     -4.81556203	     -4.10193623	    -12.38034117	     -1.71358003	     31.99986417	    -11.64328122	      2.00013387	     -4.98692173
      3.16500000	     -4.01795848	      5.56212531	    356.78614171	     -0.59618357	      1.36312604	     -0.96807524	     -4.26629185	     -3.41311811	      4.80632008	    -22.19972809	     11.49785166	     -0.71894333	     11.30245401	     22.87452434	      6.58297674	     -4.62556036	     -4.60093975	    -12.64117347	     -2.14220385	     31.92373099	    -11.58272630	      1.81472992	     -4.99255623
      3.17000000	     -4.06308867	      5.68772822	    356.85020435	     -0.59073700	      1.36338362	     -0.96873192	     -4.15386445	     -3.60868507	      4.69252207	    -22.89407199	     10.91129711	     -0.56858247	     12.03255251	     22.91779886	      6.78821927	     -4.40177234	     -5.14366902	    -12.81488358	     -2.60202869	     31.72741056	    -11.54397528	      1.62955519	     -4.96548140
      3.17500000	     -4.11520969	      5.83877861	    356.88328821	     -0.58529422	      1.36368873	     -0.96932164	     -3.96657948	     -3.83358313	      4.60967522	    -23.70107549	     10.35006008	     -0.33285820	     12.67135544	     22.98451823	      6.99943732	     -4.24512160	     -5.72664125	    -12.95126278	     -3.00702709	     31.48170081	    -11.49374300	      1.39790442	     -4.85017427
      3.18000000	     -4.11614255	      5.93877486	    356.97282318	     -0.57983197	      1.36411868	     -0.97005559	     -3.81483335	     -4.01305592	      4.45097666	    -24.52562026	      9.47848758	     -0.33545585	     13.92815326	     22.99461959	      7.19392593	     -3.96309436	     -6.33750466	    -12.95506165	     -3.42525827	     31.04874409	    -11.48767314	      1.26313438	     -4.86766798
      3.18500000	     -4.15907690	      6.07987888	    357.00700259	     -0.57439700	      1.36451807	     -0.97070649	     -3.52864805	     -4.24302925	      4.34996841	    -25.50670109	      8.82643805	      0.02336561	     14.61408602	     23.06568237	      7.40111120	     -3.74251856	     -6.97511694	    -12.93851969	     -3.87205176	     30.68588318	    -11.44757811	      1.05244744	     -4.72242255
      3.19000000	     -4.15946515	      6.18374202	    357.10587745	     -0.56895438	      1.36501476	     -0.97151531	     -3.26522383	     -4.44390201	      4.16030273	    -26.50928481	      7.89736510	      0.14811265	     15.85870273	     23.09172439	      7.61383588	     -3.42584959	     -7.63732773	    -12.87517796	     -4.36096846	     30.02788265	    -11.43703133	      0.92466308	     -4.77874493
      3.19500000	     -4.14487146	      6.30882532	    357.16535084	     -0.56345835	      1.36555877	     -0.97222040	     -2.96913881	     -4.66446701	      4.04877083	    -27.57404912	      6.89071326	      0.26978445	     17.13720426	     23.07833617	      7.82875326	     -3.13516796	     -8.27058612	    -12.65902801	     -4.67736518	     29.42362628	    -11.42416870	      0.73973485	     -4.71984018
      3.20000000	     -4.11221009	      6.40608351	    357.24497405	     -0.55804724	      1.36613529	     -0.97299021	     -2.63879376	     -4.86277585	      3.90355487	    -28.71343317	      5.84718619	      0.41515070	     18.39868006	     23.05752262	      8.03172605	     -2.83697962	     -8.92665936	    -12.44308681	     -4.99331391	     28.77485598	    -11.46409508	      0.60002794	     -4.63218769
